<?xml version="1.0" encoding="UTF-8"?>
<svg width="1467px" height="623px" viewBox="0 0 1467 623" version="1.1" xmlns="http://www.w3.org/2000/svg" xmlns:xlink="http://www.w3.org/1999/xlink">
    <!-- Generator: Sketch 55.2 (78181) - https://sketchapp.com -->
    <title>Group 21</title>
    <desc>Created with Sketch.</desc>
    <defs>
        <path d="M1190.49768,382 L1358.63956,382 C1367.65041,382 1375.84397,385.188547 1379.64418,390.174465 L1436.8404,470.610946 C1439.71987,474.3909 1439.71987,478.755946 1436.8404,482.5359 L1379.64418,554.825535 C1375.84397,559.811453 1367.65041,563 1358.63956,563 L105.635318,563 C96.4830843,563 88.1895191,559.71043 84.4720707,554.604547 L25.9998498,475.328356 C23.2169363,471.512623 23.3445296,467.141263 26.3446966,463.38867 L84.2375749,389.938744 C88.1205497,385.081209 96.2003099,382 105.055975,382 L260.50101,382 L293.036755,44.0143168 C293.965415,34.3672654 302.152543,27 311.9445,27 L1139.05419,27 C1148.84614,27 1157.03327,34.3672654 1157.96193,44.0143168 L1190.49768,382 Z" id="path-1"></path>
        <filter x="-0.1%" y="-1.1%" width="100.3%" height="101.5%" filterUnits="objectBoundingBox" id="filter-2">
            <feOffset dx="0" dy="-4" in="SourceAlpha" result="shadowOffsetOuter1"></feOffset>
            <feColorMatrix values="0 0 0 0 0.869387889   0 0 0 0 0.698587437   0 0 0 0 1  0 0 0 1 0" type="matrix" in="shadowOffsetOuter1"></feColorMatrix>
        </filter>
    </defs>
    <g id="Welcome" stroke="none" stroke-width="1" fill="none" fill-rule="evenodd">
        <g id="Ranking-Primeira-Rodada-Copy-3" transform="translate(-251.000000, -305.000000)">
            <g id="Group-21" transform="translate(253.000000, 307.000000)">
                <path d="M1210.16822,397.2625 L1369.99221,397.2625 C1379.28203,397.2625 1387.72925,401.16869 1391.64712,407.276784 L1460.59625,500.826804 C1463.56487,505.457508 1463.56487,510.804992 1460.59625,515.435696 L1392.64168,608.985716 C1388.72382,615.09381 1380.27659,619 1370.98677,619 L97.0920123,619 C87.6564284,619 79.1060972,614.97005 75.2735578,608.71499 L2.06176452,510.348625 C-0.807307145,505.674089 -0.675763587,500.318871 2.41728765,495.721685 L72.0481195,406.98801 C76.0513099,401.037194 84.3812169,397.2625 93.5110509,397.2625 L239.472947,397.2625 L272.312889,17.3636681 C273.161987,7.5411439 281.38314,6.73186299e-11 291.242295,6.73026079e-11 L1158.39887,6.73026079e-11 C1168.25803,6.7311455e-11 1176.47918,7.5411439 1177.32828,17.3636681 L1210.16822,397.2625 Z" id="Combined-Shape-Copy-4" stroke="#FEFEFF" stroke-width="3" fill="#BC7EFF" transform="translate(731.411357, 309.500000) rotate(180.000000) translate(-731.411357, -309.500000) "></path>
                <g id="Combined-Shape-Copy-5" transform="translate(731.500000, 295.000000) rotate(180.000000) translate(-731.500000, -295.000000) ">
                    <use fill="black" fill-opacity="1" filter="url(#filter-2)" xlink:href="#path-1"></use>
                    <use fill="#38165A" fill-rule="evenodd" xlink:href="#path-1"></use>
                </g>
                <path d="M1439.98129,116.805264 L1441.65862,114.961791 C1444.65454,111.271395 1437.78196,106.972488 1435.00298,103.22 L1376.61335,24.2563023 C1372.90115,19.2350465 1364.6193,16 1355.47999,16 L104.245641,16 C95.2475224,16 87.0655364,19.1356977 83.2706926,24.0389767 L25.1565525,99.1363488 C23.3037739,101.531609 22.6448412,104.165768 23.1797544,106.730956 L22.1669581,106.723754 C19.2776806,103.011934 19.2776806,98.7255664 22.1669581,95.0137461 L80.5615058,20.0271215 C84.37466,15.1310734 92.5961251,12 101.637661,12 L1358.90936,12 C1368.09277,12 1376.41458,15.2302757 1380.14469,20.2441266 L1441.81605,105.091375 C1444.60845,108.83833 1444.48042,113.130897 1441.47003,116.81585 L1439.98129,116.805264 Z" id="Combined-Shape-Copy-6" fill="#D8A5FF"></path>
                <path d="M1438.28784,120.952047 C1439.79309,117.502472 1435.53049,113.634965 1433.00862,110.22 L1374.78417,31.2563023 C1371.08248,26.2350465 1362.82405,23 1353.7106,23 L106.015809,23 C97.0431447,23 88.8843043,26.1356977 85.1001956,31.0389767 L26.1504519,106.136349 C24.6572568,108.072218 23.9416767,109.350524 24.0037117,110.656149 C21.280616,106.987252 21.3330881,102.784679 24.1611279,99.1363488 L82.3985654,24.0389767 C86.2014604,19.1356977 94.4008057,16 103.418015,16 L1357.30704,16 C1366.46573,16 1374.76516,19.2350465 1378.48523,24.2563023 L1439.99874,109.22 C1442.78362,112.972488 1442.65593,117.271395 1439.65365,120.961791 L1438.28784,120.952047 Z" id="Combined-Shape-Copy-9" fill="#7838D0"></path>
                <path d="M1437.1403,121.959901 C1438.58135,119.639001 1438.21327,118.206634 1436.0171,115.22 L1371.04041,37.2563023 C1367.35447,32.2350465 1359.13119,29 1350.05651,29 L107.671061,29 C98.7365781,29 90.6124562,32.1356977 86.8444501,37.0389767 L24.1413011,112.136349 C24.1231037,112.160042 24.1050222,112.183636 24.0870568,112.207134 C23.7404637,109.808855 24.4287705,107.368835 26.1519771,105.136349 L84.1428199,30.0389767 C87.9296123,25.1356977 96.0942391,22 105.073267,22 L1353.65295,22 C1362.77287,22 1371.03714,25.2350465 1374.74147,30.2563023 L1437.00721,113.22 C1439.7803,116.972488 1440.65316,118.271395 1437.66358,121.961791 L1437.1403,121.959901 Z" id="Combined-Shape-Copy-10" fill="#1E0D33"></path>
            </g>
        </g>
    </g>
</svg>