<?xml version="1.0" encoding="utf-8"?>
<!-- Generator: Adobe Illustrator 23.0.3, SVG Export Plug-In . SVG Version: 6.00 Build 0)  -->
<svg version="1.1" id="Camada_1" xmlns="http://www.w3.org/2000/svg" xmlns:xlink="http://www.w3.org/1999/xlink" x="0px" y="0px"
	 viewBox="0 0 208.8 165.1" style="enable-background:new 0 0 208.8 165.1;" xml:space="preserve">
<style type="text/css">
	.st0{fill:#DBC0FD;}
	.st1{fill-rule:evenodd;clip-rule:evenodd;fill:#280E49;}
	.st2{fill-rule:evenodd;clip-rule:evenodd;fill:#A765FF;}
	.st3{fill-rule:evenodd;clip-rule:evenodd;fill:#CCB3F4;}
	.st4{fill-rule:evenodd;clip-rule:evenodd;fill:#702EE0;}
</style>
<title>premio_direita</title>
<title>premio_direita</title>
<g>
	<g>
		<path class="st0" d="M177.3,163.3H31.9c-17.2,0-31.1-14-31.1-31.1c0-1.3,0.1-2.5,0.3-3.8L13.6,24.7C15.2,11.6,26.3,1.8,39.5,1.8
			h141.4c3.5,0,6.9,0.7,10.1,2c4.5,1.6,8.3,4.6,10.9,8.6c3.2,4.4,5,9.7,5.1,15.1l1.2,104.3C208.3,149,194.5,163.1,177.3,163.3z"/>
		<path class="st1" d="M202.9,27.6c0-4.6-1.6-9.1-4.3-12.9c-2.1-3.3-5.3-5.9-9-7.2c-2.7-1.2-5.7-1.8-8.7-1.8H39.5
			c-11.2,0-20.6,8.3-21.9,19.4L4.9,128.9c-0.1,1.1-0.2,2.2-0.2,3.3c0,15,12.2,27.1,27.1,27.1h145.4c15-0.2,27-12.5,26.9-27.4
			L202.9,27.6z"/>
		<path class="st2" d="M173.9,151.4H34.3c-12.7,0-23.1-10.4-23.1-23.1c0-0.9,0.1-1.9,0.2-2.8l12.1-99.1c1.1-8.9,8.6-14.6,17.6-14.6
			h138.5c9.6,0,17.3,6.7,17.3,16.3c0,0,0,0,0,0v100.2C197,141,186.7,151.4,173.9,151.4C173.9,151.4,173.9,151.4,173.9,151.4z"/>
		<path class="st3" d="M39.4,15.9h140.1c9.1-0.1,16.8,6.9,17.5,16v-2.8c0-9.6-7.7-17.3-17.3-17.3H41.2c-7.7,0-14.7,4-17.2,12.3
			C27.3,19,33.3,15.8,39.4,15.9z"/>
	</g>
	<path class="st4" d="M173.9,145.3H34.3c-0.9,0-1.9-0.1-2.8-0.2c-10.7-1.3-18.7-9.7-20.1-19.9l0,0.2c-1.6,12.7,7.4,24.2,20.1,25.7
		c0.9,0.1,1.9,0.2,2.8,0.2h139.6c12.7,0,23.1-10.3,23.1-23.1v0v-6C197,135,186.7,145.4,173.9,145.3z"/>
</g>
</svg>
