<svg id="Camada_1" data-name="Camada 1" xmlns="http://www.w3.org/2000/svg" viewBox="0 0 882 747"><defs><style>.cls-1,.cls-6{fill:#38165a;}.cls-1{opacity:0.43;isolation:isolate;}.cls-2{fill:#7838d0;}.cls-2,.cls-3,.cls-4,.cls-5,.cls-6{fill-rule:evenodd;}.cls-3{fill:#ab7dfa;}.cls-4{fill:#e7cffa;}.cls-5{fill:#190c2b;}.cls-7{fill:none;stroke:#ceb5fb;stroke-width:3px;}</style></defs><title>rkgGeral2</title><g id="Camada_1-2" data-name="Camada 1"><path class="cls-1" d="M879.3,150a20.06,20.06,0,0,0-20-20H21.9a20.06,20.06,0,0,0-20,20l.2,574a20.06,20.06,0,0,0,20,20h838a20.06,20.06,0,0,0,20-20Z"/><g id="Combined-Shape-Copy-23"><path class="cls-2" d="M21.9,127H859.3a19,19,0,0,1,19,19l.8,574a19,19,0,0,1-19,19H22.1a19,19,0,0,1-19-19h0L2.9,146A19,19,0,0,1,21.9,127Z"/></g><path id="Combined-Shape-Copy-13" class="cls-3" d="M296.6,3H859.1a19,19,0,0,1,19,19h0l-.2,177a19,19,0,0,1-19,19H272.1a19,19,0,0,1-19-19,22.75,22.75,0,0,1,.2-2.6l24.5-177A19,19,0,0,1,296.6,3Z"/><path id="Combined-Shape-Copy-23-2" data-name="Combined-Shape-Copy-23" class="cls-3" d="M21.9,119H859.3a19,19,0,0,1,19,19l.8,574a19,19,0,0,1-19,19H22.1a19,19,0,0,1-19-19h0L2.9,138A19,19,0,0,1,21.9,119Z"/><path id="Combined-Shape-Copy-26" class="cls-4" d="M21.1,168.7V155a16,16,0,0,1,16-16H837.9a16,16,0,0,1,16,16v13.7a16,16,0,0,0-16-16H37.1A16,16,0,0,0,21.1,168.7Z"/><g id="Group-12-Copy-11"><path class="cls-2" d="M21.1,171.9V158c0-8.8,8.2-16,17-16h800a16,16,0,0,1,16,16v13.9a16,16,0,0,0-16-16H38.1C29.3,155.9,21.1,163,21.1,171.9Z"/><path class="cls-5" d="M21.1,178.8v-9.7c0-8.8,8.2-16,17-16h800a16,16,0,0,1,16,16v9.7a16,16,0,0,0-16-16H38.1C29.3,162.8,21.1,170,21.1,178.8Z"/></g><path id="Combined-Shape" class="cls-4" d="M303.6,45.5v-10c0-8.8,5.5-16,12.3-16H841.4c6.8,0,12.3,7.2,12.3,16v10c0-8.8-5.5-16-12.3-16H316C309.2,29.5,303.6,36.7,303.6,45.5Z"/><g id="Group-12-Copy-9"><g id="Group-11"><path id="Combined-Shape-2" data-name="Combined-Shape" class="cls-2" d="M303.6,48.53v-10c0-8.8,5.5-16,12.3-16H841.4c6.8,0,12.3,7.2,12.3,16v10c0-8.8-5.5-16-12.3-16H316C309.2,32.53,303.6,39.73,303.6,48.53Z"/><path class="cls-5" d="M303.6,53.53v-7c0-8.8,5.5-16,12.3-16H841.4c6.8,0,12.3,7.2,12.3,16v7c0-8.8-5.5-16-12.3-16H316C309.2,37.53,303.6,44.73,303.6,53.53Z"/></g></g><path id="Combined-Shape-Copy-28" class="cls-6" d="M315.2,37H841.4c6.8,0,12.3,7.2,12.3,16v47c0,8.8-5.5,16-12.3,16H315.2c-6.8,0-11.3-7.2-11.3-16V53C303.9,44.2,308.4,37,315.2,37Z"/><path id="Combined-Shape-Copy-29" class="cls-6" d="M37.1,162h801a16,16,0,0,1,16,16V694a16,16,0,0,1-16,16H38.1a16,16,0,0,1-16-16l-1-516A16,16,0,0,1,37.1,162Z"/><path class="cls-7" d="M879.1,712a19,19,0,0,1-19,19H22.1a19,19,0,0,1-19-19h0L2.9,138a19,19,0,0,1,19-19H264l13.8-99.6A19,19,0,0,1,296.6,3H859.1a19,19,0,0,1,19,19h0Z"/></g></svg>